<svg xmlns="http://www.w3.org/2000/svg" viewBox="0 0 32 32" fill="none">
  <path
    d="M16 2C10.5 2 6 6.3 6 11.5c0 3.2 1.6 6 4 8L16 28l6-8.5c2.4-2 4-4.8 4-8C26 6.3 21.5 2 16 2z"
    fill="#C9955A"
    fill-opacity="0.15"
  />
  <path
    d="M16 2C10.5 2 6 6.3 6 11.5c0 3.2 1.6 6 4 8L16 28l6-8.5c2.4-2 4-4.8 4-8C26 6.3 21.5 2 16 2z"
    stroke="#C9955A"
    stroke-width="1.5"
    stroke-linejoin="round"
  />
  <path
    d="M16 7v9M11.5 11.5h9"
    stroke="#C9955A"
    stroke-width="2"
    stroke-linecap="round"
  />
  <path
    d="M13 8.5l-1-1.5M19 8.5l1-1.5M13 14.5l-1 1.5M19 14.5l1 1.5"
    stroke="#C9955A"
    stroke-width="1.3"
    stroke-linecap="round"
  />
  <circle cx="16" cy="11.5" r="1.5" fill="#C9955A" fill-opacity="0.4" />
</svg>
