<svg xmlns="http://www.w3.org/2000/svg" viewBox="2 0 40 48" fill="none">
  <!-- Pin outline -->
  <path
    d="M20 4C12 4 5.5 10.2 5.5 18c0 4.5 2.1 8.5 5.5 11.5L20 42l9-12.5c3.4-3 5.5-7 5.5-11.5C34.5 10.2 28 4 20 4z"
    fill="none"
    stroke="#ffffff"
    stroke-width="4"
    stroke-linejoin="round"
  />
  <!-- Briefcase body -->
  <rect x="11" y="16.5" width="18" height="10" rx="2" fill="#ffffff"/>
  <!-- Briefcase handle -->
  <path
    d="M15 16.5v-2.5a2.5 2.5 0 0 1 2.5-2.5h5a2.5 2.5 0 0 1 2.5 2.5v2.5"
    stroke="#ffffff"
    stroke-width="2.8"
    fill="none"
    stroke-linecap="round"
  />
  <!-- Briefcase band -->
  <line x1="11" y1="21" x2="29" y2="21" stroke="rgba(0,0,0,0.2)" stroke-width="0.8"/>
  <!-- Briefcase clasp -->
  <rect x="18" y="19.5" width="4" height="3.5" rx="1" fill="rgba(0,0,0,0.25)"/>
  <!-- Leaf large -->
  <path
    d="M30 3c3.2 0.2 6.5 2 7.5 5.5 0.6 2.5-0.8 5-3 6-1.5 0.6-3.2 0.2-4.5-1-1.6-1.5-2-4-0.8-6.2L30 3z"
    fill="#9DBF5A"
  />
  <!-- Leaf vein -->
  <path d="M31 4c0.4 1.5 0.2 3.8-0.8 5.8" stroke="#7DA342" stroke-width="0.7" stroke-linecap="round" fill="none"/>
  <!-- Leaf small -->
  <path
    d="M28.5 1.5c1.8-1.2 4-1.8 5.5-0.8 1.2 0.7 1.5 2.2 0.8 3.4-0.8 1.3-2.5 1.6-3.8 0.8-1-0.6-1.5-1.8-1.5-3"
    fill="#B5D478"
  />
  <!-- Leaf stem -->
  <path d="M27 10.5c1.2-2 3-5 4.5-7" stroke="#7DA342" stroke-width="1" stroke-linecap="round" fill="none"/>
</svg>
